<svg xmlns="http://www.w3.org/2000/svg" xmlns:xlink="http://www.w3.org/1999/xlink" width="310" zoomAndPan="magnify" viewBox="0 0 232.5 299.999988" height="400" preserveAspectRatio="xMidYMid meet" version="1.0"><defs><clipPath id="65d370b748"><path d="M 156 213 L 228.351562 213 L 228.351562 256 L 156 256 Z M 156 213 " clip-rule="nonzero"/></clipPath><clipPath id="9383b67868"><path d="M 39 228 L 96 228 L 96 280.636719 L 39 280.636719 Z M 39 228 " clip-rule="nonzero"/></clipPath><clipPath id="f16b010278"><path d="M 3.835938 65 L 220 65 L 220 249 L 3.835938 249 Z M 3.835938 65 " clip-rule="nonzero"/></clipPath></defs><path fill="#d33a22" d="M 122.820312 150.671875 C 122.820312 150.671875 122.824219 150.675781 123.066406 151.082031 L 122.890625 151.035156 C 122.847656 150.800781 122.820312 150.671875 122.820312 150.671875 Z M 122.820312 150.671875 " fill-opacity="1" fill-rule="nonzero"/><g clip-path="url(#65d370b748)"><path fill="#f29222" d="M 190.25 250.691406 C 189.4375 248.449219 192.066406 243.8125 192.484375 243.097656 C 185.105469 239.164062 156.917969 226.34375 156.917969 226.34375 C 156.917969 226.34375 155.664062 211.011719 164.871094 213.644531 C 174.074219 216.277344 195.371094 238.226562 195.371094 238.226562 C 198.867188 232.6875 204.898438 224.359375 209.417969 224.589844 C 210.375 223.84375 212.511719 222.554688 214.25 224.25 C 213.699219 224.28125 212.425781 224.328125 211.167969 225.761719 C 211.199219 226.613281 210.390625 227.847656 209.144531 229.230469 C 213.648438 226.542969 218.226562 224.914062 221.660156 226.261719 C 222.167969 226.457031 222.550781 226.683594 222.832031 226.933594 C 224.671875 226.839844 227.558594 227.191406 228.3125 230.167969 C 227.550781 229.753906 225.707031 228.71875 222.621094 230.003906 C 218.179688 235.621094 197.238281 244.257812 197.238281 244.257812 C 197.238281 244.257812 196.136719 251.917969 192.238281 251.894531 C 190.871094 253.671875 191.109375 255.148438 191.203125 255.789062 C 189.136719 254.378906 189.664062 252.078125 190.25 250.691406 Z M 190.25 250.691406 " fill-opacity="1" fill-rule="nonzero"/></g><g clip-path="url(#9383b67868)"><path fill="#f29222" d="M 82.511719 275.535156 C 81.894531 273.234375 77.085938 270.933594 76.332031 270.585938 C 80.128906 263.140625 95.894531 236.5 95.894531 236.5 C 95.894531 236.5 88.144531 223.210938 82.105469 230.636719 C 76.0625 238.0625 71.175781 268.242188 71.175781 268.242188 C 65.136719 265.703125 55.417969 262.328125 51.847656 265.101562 C 50.636719 265.035156 48.144531 265.203125 47.691406 267.585938 C 48.160156 267.296875 49.230469 266.609375 51.085938 267.0625 C 51.546875 267.777344 52.914062 268.328125 54.730469 268.75 C 49.496094 269.125 44.8125 270.410156 42.765625 273.476562 C 42.464844 273.929688 42.28125 274.332031 42.191406 274.699219 C 40.628906 275.671875 38.460938 277.613281 39.550781 280.488281 C 39.941406 279.710938 40.855469 277.808594 44.125 277.09375 C 50.980469 279.160156 73.101562 274.257812 73.101562 274.257812 C 73.101562 274.257812 78.390625 279.90625 81.574219 277.660156 C 83.710938 278.335938 84.359375 279.679688 84.648438 280.261719 C 85.535156 277.921875 83.785156 276.335938 82.511719 275.535156 Z M 82.511719 275.535156 " fill-opacity="1" fill-rule="nonzero"/></g><g clip-path="url(#f16b010278)"><path fill="#005995" d="M 219.867188 99.519531 C 219.863281 99.460938 219.867188 99.40625 219.863281 99.347656 C 219.859375 99.316406 219.855469 99.28125 219.851562 99.25 C 219.847656 99.171875 219.839844 99.097656 219.828125 99.023438 L 219.796875 98.835938 L 219.742188 98.628906 L 219.691406 98.421875 L 219.625 98.238281 L 219.53125 98.054688 L 219.441406 97.867188 L 219.367188 97.742188 C 219.265625 97.59375 219.15625 97.457031 219.027344 97.335938 L 218.945312 97.273438 L 218.601562 97.019531 L 218.449219 96.933594 L 218.097656 96.785156 L 217.929688 96.726562 L 217.46875 96.628906 L 217.363281 96.609375 C 217.164062 96.589844 216.960938 96.585938 216.746094 96.597656 L 216.570312 96.613281 C 216.429688 96.625 216.28125 96.648438 216.132812 96.675781 C 216.117188 96.679688 216.097656 96.679688 216.082031 96.683594 L 215.851562 96.730469 C 215.804688 96.742188 215.753906 96.761719 215.707031 96.773438 C 215.589844 96.804688 215.472656 96.835938 215.351562 96.875 L 215.136719 96.945312 C 215.09375 96.960938 215.054688 96.980469 215.015625 96.996094 C 214.875 97.050781 214.734375 97.109375 214.589844 97.175781 C 214.527344 97.203125 214.46875 97.230469 214.40625 97.261719 L 214.398438 97.265625 L 214.394531 97.269531 C 214.273438 97.328125 214.152344 97.394531 214.03125 97.464844 C 213.90625 97.535156 213.785156 97.609375 213.664062 97.6875 L 213.527344 97.78125 L 213.433594 97.84375 C 213.382812 97.878906 213.332031 97.917969 213.28125 97.953125 C 213.160156 98.039062 213.035156 98.125 212.914062 98.21875 L 212.609375 98.464844 C 212.449219 98.597656 212.285156 98.746094 212.125 98.898438 L 211.828125 99.175781 C 211.714844 99.289062 211.601562 99.417969 211.488281 99.542969 C 211.429688 99.605469 211.371094 99.664062 211.308594 99.730469 L 211.0625 100.003906 C 210.8125 100.300781 210.5625 100.617188 210.316406 100.957031 L 210.332031 100.761719 C 210.472656 100.503906 210.601562 100.257812 210.730469 100.007812 C 211 99.492188 211.257812 98.980469 211.484375 98.484375 C 211.566406 98.304688 211.632812 98.128906 211.703125 97.957031 C 211.730469 97.886719 211.757812 97.820312 211.785156 97.75 C 211.988281 97.273438 212.199219 96.792969 212.367188 96.332031 C 212.46875 96.050781 212.542969 95.78125 212.632812 95.507812 C 212.761719 95.105469 212.902344 94.699219 213.003906 94.3125 C 213.078125 94.03125 213.128906 93.765625 213.1875 93.492188 C 213.269531 93.132812 213.355469 92.773438 213.414062 92.429688 C 213.460938 92.160156 213.480469 91.910156 213.515625 91.648438 C 213.554688 91.328125 213.601562 91.003906 213.625 90.699219 C 213.640625 90.445312 213.636719 90.210938 213.644531 89.96875 C 213.648438 89.683594 213.660156 89.390625 213.648438 89.117188 C 213.640625 88.886719 213.613281 88.675781 213.59375 88.457031 C 213.570312 88.203125 213.550781 87.941406 213.511719 87.703125 C 213.480469 87.496094 213.433594 87.308594 213.390625 87.117188 C 213.34375 86.890625 213.296875 86.664062 213.234375 86.460938 C 213.183594 86.277344 213.121094 86.117188 213.058594 85.949219 C 212.988281 85.757812 212.921875 85.566406 212.839844 85.394531 C 212.773438 85.242188 212.695312 85.109375 212.617188 84.96875 C 212.53125 84.8125 212.441406 84.65625 212.347656 84.515625 C 212.292969 84.433594 212.234375 84.367188 212.175781 84.292969 C 211.855469 78.054688 209.828125 72.824219 205.476562 69.46875 C 200.277344 65.460938 188.195312 62.449219 180.078125 72.605469 C 177.785156 75.472656 179.945312 78.324219 179.945312 78.324219 C 179.945312 78.324219 174.320312 82.84375 183.019531 89.386719 C 183.019531 89.386719 179.871094 95.722656 172.789062 102.859375 C 172.785156 102.863281 172.78125 102.863281 172.777344 102.867188 C 169.726562 105.941406 165.941406 109.164062 161.363281 112.09375 C 161.34375 112.101562 161.335938 112.105469 161.335938 112.105469 C 157.382812 114.632812 152.84375 116.945312 147.667969 118.75 C 147.609375 118.773438 147.550781 118.792969 147.492188 118.8125 C 146.984375 118.988281 146.472656 119.160156 145.953125 119.324219 C 145.921875 119.332031 145.890625 119.34375 145.859375 119.351562 C 145.800781 119.371094 145.742188 119.390625 145.683594 119.410156 C 145.195312 119.5625 144.699219 119.710938 144.203125 119.855469 C 144.097656 119.882812 143.996094 119.914062 143.894531 119.945312 C 143.449219 120.070312 142.996094 120.191406 142.546875 120.308594 C 134.390625 117.378906 124.617188 116.148438 113.121094 117.179688 C 100.988281 118.269531 90.792969 122.191406 82.535156 128.003906 C 82.144531 127.941406 81.753906 127.875 81.367188 127.804688 C 81.261719 127.785156 81.160156 127.761719 81.054688 127.742188 C 80.542969 127.644531 80.035156 127.542969 79.535156 127.433594 C 79.476562 127.421875 79.414062 127.410156 79.355469 127.394531 C 79.324219 127.390625 79.292969 127.382812 79.261719 127.375 C 78.730469 127.257812 78.203125 127.136719 77.683594 127.007812 C 77.621094 126.992188 77.558594 126.976562 77.496094 126.960938 C 72.179688 125.640625 67.445312 123.757812 63.277344 121.605469 C 63.277344 121.605469 63.265625 121.601562 63.25 121.597656 C 58.421875 119.101562 54.355469 116.242188 51.03125 113.460938 C 51.027344 113.457031 51.023438 113.457031 51.019531 113.453125 C 43.3125 107 39.59375 100.984375 39.59375 100.984375 C 47.652344 93.664062 41.632812 89.683594 41.632812 89.683594 C 41.632812 89.683594 43.519531 86.644531 40.96875 84 C 31.949219 74.636719 20.199219 78.746094 15.390625 83.21875 C 11.367188 86.960938 9.832031 92.355469 10.089844 98.597656 C 10.039062 98.675781 9.988281 98.75 9.9375 98.835938 C 9.855469 98.984375 9.785156 99.148438 9.710938 99.3125 C 9.648438 99.457031 9.582031 99.597656 9.527344 99.753906 C 9.464844 99.933594 9.414062 100.132812 9.363281 100.328125 C 9.316406 100.5 9.269531 100.667969 9.234375 100.851562 C 9.191406 101.0625 9.164062 101.292969 9.136719 101.519531 C 9.113281 101.714844 9.085938 101.90625 9.070312 102.113281 C 9.054688 102.355469 9.058594 102.617188 9.058594 102.875 C 9.058594 103.09375 9.054688 103.308594 9.066406 103.539062 C 9.078125 103.808594 9.117188 104.097656 9.152344 104.382812 C 9.175781 104.621094 9.199219 104.855469 9.238281 105.105469 C 9.285156 105.410156 9.363281 105.730469 9.433594 106.042969 C 9.488281 106.300781 9.535156 106.550781 9.605469 106.8125 C 9.695312 107.148438 9.816406 107.5 9.925781 107.847656 C 10.015625 108.117188 10.085938 108.375 10.1875 108.648438 C 10.324219 109.023438 10.5 109.414062 10.667969 109.804688 C 10.78125 110.070312 10.878906 110.328125 11.007812 110.601562 C 11.21875 111.042969 11.46875 111.503906 11.71875 111.960938 C 11.753906 112.027344 11.785156 112.09375 11.816406 112.15625 C 11.816406 112.15625 11.816406 112.15625 11.820312 112.15625 C 11.902344 112.324219 11.988281 112.492188 12.085938 112.664062 C 12.359375 113.136719 12.660156 113.621094 12.976562 114.109375 C 13.128906 114.347656 13.277344 114.582031 13.441406 114.824219 L 13.476562 115.015625 C 13.203125 114.703125 12.921875 114.410156 12.644531 114.136719 L 12.375 113.886719 C 12.308594 113.828125 12.246094 113.773438 12.179688 113.714844 C 12.054688 113.601562 11.929688 113.488281 11.804688 113.382812 L 11.488281 113.132812 C 11.3125 112.996094 11.136719 112.867188 10.960938 112.746094 L 10.636719 112.53125 C 10.507812 112.449219 10.378906 112.375 10.25 112.300781 C 10.195312 112.269531 10.140625 112.234375 10.085938 112.203125 L 9.988281 112.148438 L 9.84375 112.070312 C 9.714844 112.003906 9.585938 111.941406 9.457031 111.882812 C 9.328125 111.824219 9.203125 111.769531 9.078125 111.71875 L 9.074219 111.71875 L 9.0625 111.710938 C 9 111.6875 8.9375 111.667969 8.871094 111.644531 C 8.726562 111.59375 8.578125 111.546875 8.433594 111.503906 C 8.394531 111.492188 8.351562 111.480469 8.308594 111.46875 L 8.085938 111.414062 C 7.964844 111.386719 7.84375 111.367188 7.722656 111.347656 C 7.675781 111.339844 7.625 111.324219 7.578125 111.320312 L 7.34375 111.289062 C 7.324219 111.289062 7.308594 111.289062 7.289062 111.289062 C 7.140625 111.273438 6.992188 111.269531 6.851562 111.269531 L 6.671875 111.265625 C 6.460938 111.277344 6.257812 111.300781 6.058594 111.339844 L 5.957031 111.367188 L 5.507812 111.503906 L 5.34375 111.578125 L 5.007812 111.761719 L 4.863281 111.859375 L 4.542969 112.144531 L 4.46875 112.214844 C 4.351562 112.347656 4.253906 112.492188 4.167969 112.648438 L 4.105469 112.78125 L 4.03125 112.972656 L 3.957031 113.167969 L 3.90625 113.355469 L 3.84375 113.777344 L 3.824219 113.96875 C 3.820312 114.042969 3.824219 114.117188 3.824219 114.195312 C 3.824219 114.226562 3.820312 114.261719 3.824219 114.296875 C 3.824219 114.351562 3.832031 114.410156 3.835938 114.464844 C 3.839844 114.523438 3.839844 114.578125 3.847656 114.640625 C 3.886719 114.933594 3.957031 115.234375 4.054688 115.53125 L 4.085938 115.613281 L 4.171875 115.835938 C 4.199219 115.902344 4.226562 115.96875 4.25 116.035156 C 4.277344 116.097656 4.304688 116.160156 4.332031 116.222656 C 4.359375 116.292969 4.390625 116.363281 4.425781 116.433594 L 4.621094 116.792969 C 4.722656 116.976562 4.824219 117.15625 4.941406 117.339844 L 5.199219 117.714844 C 5.324219 117.890625 5.449219 118.066406 5.585938 118.238281 C 5.6875 118.367188 5.789062 118.492188 5.894531 118.617188 C 6.035156 118.789062 6.1875 118.960938 6.339844 119.132812 C 6.453125 119.257812 6.5625 119.378906 6.679688 119.503906 C 6.84375 119.675781 7.015625 119.847656 7.1875 120.015625 C 7.304688 120.128906 7.421875 120.246094 7.542969 120.363281 C 7.730469 120.542969 7.925781 120.71875 8.125 120.894531 C 8.226562 120.984375 8.328125 121.078125 8.429688 121.167969 C 8.4375 121.175781 8.445312 121.183594 8.453125 121.191406 C 8.453125 121.191406 8.457031 121.191406 8.457031 121.195312 C 8.707031 121.410156 8.960938 121.621094 9.214844 121.832031 L 9.339844 121.933594 L 9.402344 121.988281 C 9.5625 122.117188 9.722656 122.238281 9.882812 122.363281 C 10.042969 122.488281 10.203125 122.617188 10.363281 122.738281 L 10.695312 122.984375 C 10.90625 123.140625 11.117188 123.296875 11.324219 123.445312 C 11.457031 123.542969 11.585938 123.632812 11.71875 123.726562 C 11.902344 123.855469 12.085938 123.984375 12.261719 124.105469 C 12.398438 124.199219 12.527344 124.285156 12.660156 124.375 C 12.824219 124.488281 12.992188 124.597656 13.152344 124.703125 C 13.199219 124.734375 13.242188 124.761719 13.289062 124.792969 C 13.367188 124.84375 13.445312 124.894531 13.519531 124.945312 C 13.679688 125.046875 13.832031 125.144531 13.980469 125.238281 L 14.3125 125.445312 C 14.449219 125.535156 14.582031 125.617188 14.710938 125.691406 L 15 125.871094 C 15.132812 125.953125 15.257812 126.027344 15.375 126.09375 L 15.550781 126.199219 C 15.714844 126.296875 15.859375 126.378906 15.976562 126.445312 C 15.867188 126.386719 15.738281 126.316406 15.589844 126.234375 C 15.515625 126.195312 15.4375 126.152344 15.355469 126.109375 C 13.117188 124.929688 7.816406 122.410156 6.5 124.265625 C 6.402344 124.40625 6.324219 124.566406 6.273438 124.753906 L 6.261719 124.769531 L 6.117188 124.957031 L 6.105469 125.003906 L 6.09375 125.027344 L 6.085938 125.167969 L 6.070312 125.363281 L 6.070312 125.382812 L 6.171875 125.855469 L 6.191406 125.925781 L 6.214844 125.992188 C 6.269531 126.160156 6.335938 126.335938 6.425781 126.527344 L 6.441406 126.5625 L 6.449219 126.585938 C 6.546875 126.792969 6.667969 127.015625 6.804688 127.246094 L 6.917969 127.429688 C 7.007812 127.570312 7.109375 127.71875 7.210938 127.863281 C 7.261719 127.9375 7.304688 128.007812 7.359375 128.082031 L 7.421875 128.171875 C 7.484375 128.253906 7.550781 128.339844 7.617188 128.425781 C 7.75 128.59375 7.890625 128.765625 8.039062 128.9375 L 8.210938 129.132812 C 8.421875 129.367188 8.640625 129.601562 8.882812 129.839844 L 8.992188 129.949219 C 9.21875 130.167969 9.464844 130.390625 9.722656 130.609375 C 9.773438 130.652344 9.824219 130.695312 9.875 130.738281 L 9.992188 130.835938 L 10.105469 130.929688 C 10.394531 131.160156 10.691406 131.386719 11.007812 131.613281 L 11.167969 131.726562 C 11.535156 131.980469 11.921875 132.222656 12.328125 132.460938 L 12.601562 132.613281 C 12.789062 132.71875 12.996094 132.820312 13.191406 132.921875 C 13.390625 133.023438 13.578125 133.128906 13.785156 133.226562 L 13.945312 133.304688 C 14.246094 133.445312 14.566406 133.574219 14.886719 133.703125 C 15.046875 133.765625 15.207031 133.828125 15.371094 133.890625 L 15.6875 134 L 15.71875 134.011719 C 16.199219 134.179688 16.695312 134.335938 17.214844 134.472656 L 17.324219 134.503906 C 17.460938 134.539062 17.605469 134.566406 17.746094 134.601562 C 18.164062 134.695312 18.59375 134.785156 19.035156 134.859375 L 19.457031 134.925781 C 19.757812 134.972656 20.066406 135.015625 20.378906 135.050781 C 20.6875 135.085938 21.007812 135.117188 21.332031 135.140625 L 21.292969 135.148438 C 21.035156 135.175781 20.78125 135.21875 20.535156 135.273438 L 20.265625 135.339844 L 19.761719 135.46875 L 19.46875 135.566406 L 19.246094 135.644531 L 19.027344 135.722656 L 18.9375 135.757812 L 18.742188 135.839844 L 18.472656 135.960938 L 18.332031 136.027344 L 18.070312 136.15625 L 17.675781 136.378906 L 17.460938 136.503906 C 17.382812 136.550781 17.3125 136.601562 17.242188 136.652344 C 17.167969 136.703125 17.089844 136.753906 17.019531 136.804688 L 16.914062 136.875 C 16.746094 137.003906 16.585938 137.132812 16.441406 137.265625 L 16.320312 137.382812 L 16.046875 137.660156 L 15.984375 137.734375 L 15.921875 137.8125 L 15.734375 138.054688 L 15.640625 138.210938 L 15.519531 138.441406 L 15.507812 138.46875 L 15.457031 138.589844 L 15.402344 138.8125 L 15.378906 138.941406 L 15.386719 139.019531 L 15.398438 139.171875 L 15.410156 139.257812 L 15.566406 139.53125 L 15.628906 139.585938 L 15.847656 139.75 L 16.160156 139.875 L 16.3125 139.925781 C 16.5 139.972656 16.714844 140.003906 16.960938 140.019531 C 17.125 140.027344 17.285156 140.042969 17.445312 140.050781 C 19.253906 140.164062 21.058594 140.355469 22.855469 140.621094 C 23.507812 140.714844 24.15625 140.820312 24.804688 140.929688 C 24.640625 140.953125 24.476562 140.984375 24.320312 141.019531 L 24.171875 141.058594 L 24.09375 141.078125 C 23.929688 141.125 23.773438 141.175781 23.625 141.234375 L 23.460938 141.296875 C 23.265625 141.382812 23.082031 141.480469 22.914062 141.585938 L 22.828125 141.648438 L 22.644531 141.796875 L 22.457031 141.941406 L 22.332031 142.070312 L 22.167969 142.265625 L 22.089844 142.363281 L 21.988281 142.507812 L 21.792969 142.886719 L 21.75 142.980469 C 21.699219 143.121094 21.667969 143.269531 21.644531 143.417969 C 21.640625 143.445312 21.628906 143.46875 21.625 143.492188 L 21.617188 143.640625 L 21.617188 144.050781 L 21.640625 144.246094 L 21.730469 144.660156 L 21.742188 144.691406 L 21.785156 144.847656 C 21.820312 144.945312 21.859375 145.050781 21.902344 145.152344 C 21.929688 145.21875 21.964844 145.289062 22 145.359375 C 22.019531 145.394531 22.03125 145.425781 22.050781 145.460938 C 22.191406 145.722656 22.367188 145.976562 22.566406 146.21875 L 22.789062 146.460938 C 22.929688 146.617188 23.074219 146.777344 23.238281 146.925781 L 23.554688 147.191406 C 23.714844 147.324219 23.875 147.457031 24.050781 147.582031 L 24.425781 147.839844 C 24.605469 147.957031 24.789062 148.074219 24.976562 148.1875 C 25.117188 148.269531 25.257812 148.351562 25.402344 148.429688 C 25.597656 148.539062 25.796875 148.644531 26.003906 148.746094 C 26.152344 148.820312 26.300781 148.898438 26.453125 148.96875 C 26.671875 149.070312 26.890625 149.167969 27.113281 149.261719 C 27.265625 149.328125 27.414062 149.394531 27.566406 149.457031 C 27.730469 149.523438 27.894531 149.585938 28.058594 149.648438 C 28.140625 149.679688 28.222656 149.710938 28.304688 149.742188 C 28.441406 149.796875 28.582031 149.851562 28.71875 149.902344 C 29.03125 150.011719 29.347656 150.117188 29.660156 150.222656 L 29.738281 150.246094 L 29.890625 150.300781 C 30.28125 150.421875 30.671875 150.539062 31.058594 150.652344 L 31.457031 150.757812 C 31.710938 150.828125 31.964844 150.902344 32.210938 150.964844 C 32.371094 151.003906 32.523438 151.042969 32.679688 151.082031 C 32.898438 151.132812 33.113281 151.1875 33.324219 151.238281 C 33.484375 151.273438 33.636719 151.308594 33.792969 151.34375 C 33.941406 151.378906 34.085938 151.410156 34.230469 151.441406 C 34.277344 151.449219 34.324219 151.460938 34.371094 151.472656 C 34.519531 151.503906 34.660156 151.535156 34.800781 151.5625 C 34.984375 151.597656 35.164062 151.636719 35.335938 151.667969 L 35.527344 151.707031 L 35.722656 151.746094 C 35.882812 151.777344 36.035156 151.804688 36.179688 151.828125 L 36.515625 151.890625 C 36.566406 151.898438 36.609375 151.90625 36.660156 151.914062 C 36.757812 151.929688 36.855469 151.949219 36.945312 151.964844 L 37.148438 151.996094 C 37.335938 152.027344 37.5 152.054688 37.636719 152.074219 C 37.328125 152.03125 36.871094 151.972656 36.324219 151.921875 C 36.105469 151.898438 35.871094 151.875 35.625 151.855469 C 34.765625 151.785156 33.769531 151.734375 32.785156 151.75 C 32.5 151.753906 32.222656 151.761719 31.945312 151.78125 C 31.808594 151.789062 31.667969 151.796875 31.535156 151.808594 C 31.398438 151.820312 31.265625 151.832031 31.132812 151.847656 C 29.949219 151.988281 28.921875 152.28125 28.378906 152.832031 C 28.078125 153.140625 27.925781 153.527344 27.976562 154.011719 L 27.90625 154.257812 L 27.910156 154.332031 L 28.007812 154.652344 L 28.015625 154.671875 L 28.28125 155.074219 L 28.371094 155.1875 C 28.484375 155.324219 28.613281 155.464844 28.761719 155.609375 L 28.808594 155.65625 C 28.917969 155.757812 29.042969 155.867188 29.175781 155.976562 C 29.242188 156.03125 29.308594 156.085938 29.378906 156.140625 L 29.546875 156.269531 C 29.601562 156.308594 29.660156 156.347656 29.714844 156.390625 C 29.867188 156.5 30.023438 156.609375 30.195312 156.71875 L 30.289062 156.78125 C 30.550781 156.945312 30.839844 157.109375 31.140625 157.269531 L 31.375 157.390625 C 31.652344 157.53125 31.945312 157.671875 32.253906 157.804688 L 32.394531 157.867188 C 32.746094 158.015625 33.121094 158.15625 33.507812 158.285156 L 33.789062 158.375 C 34.140625 158.488281 34.503906 158.59375 34.878906 158.6875 L 35.070312 158.738281 C 35.5 158.839844 35.953125 158.925781 36.417969 159 L 36.726562 159.042969 C 37.15625 159.105469 37.597656 159.152344 38.050781 159.1875 L 38.226562 159.203125 C 38.449219 159.214844 38.675781 159.222656 38.902344 159.226562 C 39.1875 159.234375 39.476562 159.234375 39.769531 159.230469 L 39.789062 159.230469 L 40.136719 159.21875 C 40.644531 159.199219 41.167969 159.164062 41.699219 159.105469 L 41.8125 159.09375 C 41.839844 159.089844 41.867188 159.085938 41.890625 159.082031 C 42.425781 159.015625 42.976562 158.921875 43.535156 158.804688 L 43.953125 158.714844 C 44.242188 158.652344 44.535156 158.582031 44.828125 158.503906 C 45.125 158.429688 45.421875 158.34375 45.722656 158.25 C 45.726562 158.253906 45.730469 158.257812 45.734375 158.261719 C 45.507812 158.382812 45.292969 158.511719 45.082031 158.648438 L 44.855469 158.804688 L 44.433594 159.109375 L 44.316406 159.207031 L 44.195312 159.304688 L 44.113281 159.375 L 43.839844 159.613281 L 43.703125 159.746094 L 43.617188 159.824219 L 43.40625 160.039062 L 43.304688 160.148438 L 43.109375 160.363281 L 42.816406 160.714844 L 42.703125 160.859375 L 42.667969 160.90625 C 42.609375 160.980469 42.566406 161.054688 42.515625 161.128906 C 42.464844 161.203125 42.410156 161.273438 42.363281 161.347656 L 42.335938 161.382812 L 42.289062 161.453125 C 42.214844 161.574219 42.15625 161.691406 42.089844 161.808594 C 42.058594 161.867188 42.019531 161.929688 41.992188 161.988281 L 41.921875 162.140625 L 41.765625 162.5 L 41.703125 162.683594 L 41.621094 162.980469 L 41.597656 163.09375 L 41.585938 163.160156 L 41.554688 163.417969 L 41.550781 163.578125 L 41.582031 163.804688 L 41.59375 163.871094 L 41.609375 163.933594 L 41.660156 164.039062 L 41.710938 164.140625 L 41.734375 164.179688 L 41.753906 164.21875 L 41.875 164.320312 L 41.996094 164.417969 L 42.074219 164.445312 L 42.335938 164.519531 L 42.675781 164.519531 L 42.839844 164.515625 C 42.917969 164.503906 43.171875 164.433594 43.089844 164.46875 C 40.242188 165.632812 44.558594 168.230469 58.117188 165.292969 C 55.609375 175.972656 55.605469 187.199219 58.121094 197.59375 C 57.628906 197.484375 57.167969 197.4375 56.753906 197.46875 C 52.246094 197.808594 52.117188 203.152344 52.117188 203.152344 C 52.117188 203.152344 48.015625 199.925781 44.117188 202.828125 C 40.753906 205.332031 43.902344 210.042969 43.902344 210.042969 C 43.902344 210.042969 34.296875 210.121094 35.125 216.8125 C 36.566406 228.472656 66.988281 226.574219 66.988281 226.574219 C 69.855469 226.484375 72.136719 226.128906 73.957031 225.59375 C 74.785156 226.367188 75.640625 227.117188 76.53125 227.839844 C 75.351562 228.914062 74.226562 230.046875 73.3125 231.160156 C 70.800781 234.230469 72.730469 237.363281 75.539062 237.867188 C 75.523438 244.039062 88.09375 250.421875 94.414062 247.757812 C 96.554688 249.898438 100.945312 248.851562 101.628906 244.640625 C 101.921875 242.824219 101.90625 240.75 101.722656 238.691406 C 106.964844 239.488281 112.652344 239.652344 118.796875 239.078125 C 131.546875 237.886719 142.367188 232.800781 151.007812 225.328125 C 152.023438 228.246094 153.40625 231.425781 155.15625 233.699219 C 157.761719 237.082031 162.121094 235.917969 162.984375 233.015625 C 169.8125 232.359375 177.835938 220.765625 174.886719 215.34375 C 177.117188 213.566406 177.324219 209.894531 173.652344 208.386719 C 171.394531 207.460938 168.578125 206.78125 166.054688 206.304688 C 175.011719 189.574219 177.480469 169.253906 172.308594 152.207031 C 172.355469 152.203125 172.402344 152.203125 172.449219 152.195312 C 173.378906 152.078125 174.347656 151.800781 175.351562 151.390625 C 176.164062 151.464844 176.972656 151.546875 177.78125 151.640625 C 180.210938 151.921875 182.628906 152.3125 185.007812 152.859375 C 185.046875 152.867188 185.082031 152.871094 185.121094 152.878906 C 185.21875 152.898438 185.3125 152.914062 185.402344 152.925781 C 185.488281 152.9375 185.574219 152.945312 185.65625 152.949219 L 185.820312 152.941406 L 186.15625 152.90625 L 186.410156 152.808594 L 186.484375 152.773438 L 186.59375 152.664062 L 186.707031 152.554688 L 186.726562 152.515625 L 186.742188 152.472656 L 186.785156 152.367188 L 186.824219 152.257812 L 186.832031 152.191406 L 186.839844 152.128906 L 186.847656 151.898438 L 186.832031 151.742188 L 186.777344 151.484375 L 186.757812 151.417969 L 186.726562 151.308594 L 186.617188 151.023438 L 186.535156 150.84375 L 186.351562 150.5 L 186.265625 150.355469 C 186.230469 150.296875 186.1875 150.242188 186.148438 150.1875 C 186.074219 150.074219 186.003906 149.960938 185.917969 149.851562 L 185.863281 149.785156 L 185.839844 149.753906 C 185.785156 149.683594 185.722656 149.617188 185.667969 149.546875 C 185.609375 149.476562 185.554688 149.410156 185.496094 149.339844 L 185.453125 149.296875 L 185.324219 149.160156 L 185.003906 148.839844 L 184.789062 148.644531 L 184.675781 148.546875 L 184.445312 148.351562 L 184.355469 148.277344 L 184.207031 148.160156 L 183.910156 147.949219 L 183.820312 147.886719 L 183.570312 147.714844 L 183.121094 147.449219 L 182.878906 147.3125 C 182.660156 147.195312 182.429688 147.085938 182.195312 146.988281 C 182.199219 146.984375 182.203125 146.980469 182.207031 146.976562 C 182.515625 147.042969 182.820312 147.097656 183.117188 147.148438 C 183.417969 147.195312 183.714844 147.238281 184.011719 147.277344 L 184.433594 147.328125 C 185 147.390625 185.558594 147.433594 186.097656 147.453125 C 186.121094 147.453125 186.148438 147.453125 186.175781 147.457031 L 186.289062 147.457031 C 186.828125 147.464844 187.347656 147.453125 187.855469 147.425781 L 188.203125 147.402344 L 188.222656 147.402344 C 188.515625 147.378906 188.804688 147.351562 189.089844 147.320312 C 189.3125 147.292969 189.539062 147.265625 189.757812 147.230469 L 189.929688 147.199219 C 190.378906 147.125 190.816406 147.035156 191.238281 146.9375 L 191.542969 146.863281 C 191.996094 146.746094 192.4375 146.617188 192.859375 146.476562 L 193.042969 146.410156 C 193.410156 146.28125 193.761719 146.144531 194.097656 146 L 194.371094 145.882812 C 194.742188 145.71875 195.105469 145.546875 195.441406 145.367188 L 195.574219 145.289062 C 195.871094 145.128906 196.148438 144.964844 196.414062 144.796875 L 196.632812 144.65625 C 196.917969 144.46875 197.191406 144.277344 197.4375 144.089844 L 197.523438 144.019531 C 197.683594 143.894531 197.832031 143.769531 197.972656 143.644531 C 198.023438 143.601562 198.078125 143.554688 198.125 143.511719 L 198.285156 143.367188 C 198.347656 143.304688 198.410156 143.246094 198.46875 143.183594 C 198.589844 143.0625 198.707031 142.945312 198.808594 142.832031 L 198.847656 142.78125 C 198.984375 142.621094 199.097656 142.46875 199.199219 142.324219 L 199.277344 142.207031 L 199.503906 141.777344 L 199.511719 141.757812 L 199.578125 141.429688 L 199.574219 141.355469 L 199.480469 141.117188 C 199.488281 140.628906 199.300781 140.257812 198.972656 139.980469 C 198.382812 139.480469 197.335938 139.28125 196.140625 139.253906 C 196.007812 139.25 195.875 139.25 195.738281 139.25 C 195.601562 139.253906 195.464844 139.253906 195.324219 139.257812 C 195.050781 139.269531 194.769531 139.285156 194.488281 139.308594 C 193.503906 139.382812 192.515625 139.527344 191.667969 139.675781 C 191.425781 139.71875 191.195312 139.761719 190.980469 139.804688 C 190.4375 139.90625 189.988281 140.007812 189.6875 140.074219 C 189.820312 140.042969 189.980469 140.003906 190.164062 139.957031 L 190.265625 139.929688 L 190.363281 139.902344 C 190.449219 139.878906 190.546875 139.855469 190.644531 139.828125 C 190.691406 139.816406 190.734375 139.804688 190.785156 139.789062 L 191.113281 139.699219 C 191.253906 139.660156 191.40625 139.617188 191.5625 139.574219 L 191.75 139.519531 L 191.941406 139.464844 C 192.109375 139.414062 192.28125 139.363281 192.460938 139.308594 C 192.597656 139.265625 192.738281 139.222656 192.882812 139.179688 C 192.925781 139.164062 192.972656 139.148438 193.019531 139.132812 C 193.160156 139.089844 193.300781 139.042969 193.445312 138.996094 C 193.59375 138.949219 193.746094 138.898438 193.902344 138.847656 C 194.105469 138.78125 194.316406 138.707031 194.527344 138.632812 C 194.679688 138.578125 194.828125 138.527344 194.984375 138.472656 C 195.226562 138.386719 195.472656 138.292969 195.71875 138.199219 L 196.101562 138.054688 C 196.476562 137.910156 196.855469 137.757812 197.234375 137.597656 L 197.382812 137.53125 L 197.457031 137.496094 C 197.761719 137.367188 198.0625 137.230469 198.363281 137.09375 C 198.5 137.03125 198.632812 136.960938 198.765625 136.898438 C 198.84375 136.859375 198.921875 136.820312 199 136.78125 C 199.15625 136.703125 199.316406 136.625 199.46875 136.546875 C 199.617188 136.46875 199.761719 136.386719 199.90625 136.308594 C 200.121094 136.195312 200.328125 136.078125 200.535156 135.957031 C 200.679688 135.871094 200.820312 135.78125 200.960938 135.695312 C 201.15625 135.574219 201.347656 135.449219 201.535156 135.324219 C 201.667969 135.230469 201.800781 135.136719 201.933594 135.042969 C 202.113281 134.914062 202.28125 134.777344 202.449219 134.644531 L 202.800781 134.351562 C 202.964844 134.210938 203.109375 134.066406 203.257812 133.917969 L 203.546875 133.625 C 203.695312 133.460938 203.824219 133.289062 203.953125 133.121094 L 204.152344 132.859375 C 204.328125 132.597656 204.476562 132.332031 204.59375 132.058594 C 204.609375 132.023438 204.621094 131.988281 204.636719 131.949219 C 204.664062 131.878906 204.691406 131.804688 204.714844 131.734375 C 204.75 131.628906 204.777344 131.523438 204.804688 131.421875 L 204.832031 131.261719 L 204.839844 131.230469 L 204.890625 130.808594 L 204.894531 130.613281 L 204.859375 130.203125 L 204.835938 130.058594 C 204.832031 130.035156 204.820312 130.011719 204.8125 129.984375 C 204.773438 129.839844 204.730469 129.691406 204.667969 129.558594 L 204.613281 129.46875 L 204.386719 129.109375 L 204.273438 128.972656 L 204.183594 128.886719 L 204 128.707031 L 203.863281 128.589844 L 203.667969 128.460938 L 203.46875 128.332031 L 203.375 128.277344 C 203.199219 128.1875 203.011719 128.109375 202.808594 128.042969 L 202.636719 127.992188 C 202.484375 127.949219 202.324219 127.910156 202.15625 127.878906 L 202.078125 127.867188 L 201.925781 127.84375 C 201.765625 127.820312 201.601562 127.808594 201.433594 127.796875 C 202.070312 127.628906 202.707031 127.464844 203.347656 127.308594 C 205.109375 126.882812 206.890625 126.523438 208.679688 126.246094 C 208.839844 126.222656 209 126.191406 209.160156 126.167969 C 209.40625 126.132812 209.617188 126.078125 209.796875 126.019531 L 209.867188 125.988281 L 209.945312 125.949219 L 210.246094 125.796875 L 210.449219 125.613281 L 210.503906 125.554688 L 210.632812 125.269531 L 210.636719 125.179688 L 210.636719 124.949219 L 210.601562 124.824219 L 210.527344 124.605469 L 210.46875 124.492188 L 210.453125 124.464844 L 210.3125 124.246094 L 210.199219 124.101562 L 209.992188 123.875 L 209.855469 123.738281 L 209.554688 123.484375 L 209.421875 123.378906 C 209.265625 123.261719 209.097656 123.148438 208.917969 123.035156 L 208.804688 122.972656 C 208.730469 122.929688 208.648438 122.886719 208.570312 122.84375 C 208.492188 122.800781 208.417969 122.757812 208.335938 122.714844 L 208.113281 122.609375 L 207.699219 122.425781 L 207.425781 122.320312 L 207.277344 122.269531 L 207 122.171875 L 206.796875 122.109375 L 206.707031 122.082031 L 206.480469 122.023438 L 206.25 121.964844 L 205.953125 121.898438 L 205.4375 121.8125 L 205.164062 121.773438 C 204.914062 121.742188 204.65625 121.722656 204.398438 121.71875 L 204.378906 121.714844 L 204.359375 121.714844 C 204.679688 121.664062 204.992188 121.601562 205.300781 121.539062 C 205.605469 121.472656 205.90625 121.402344 206.207031 121.328125 L 206.621094 121.222656 C 207.050781 121.109375 207.46875 120.980469 207.878906 120.847656 C 208.015625 120.800781 208.15625 120.757812 208.289062 120.710938 L 208.394531 120.671875 C 208.898438 120.484375 209.378906 120.285156 209.84375 120.074219 L 209.871094 120.0625 L 210.175781 119.921875 C 210.335938 119.84375 210.488281 119.765625 210.640625 119.6875 C 210.949219 119.53125 211.253906 119.375 211.542969 119.207031 L 211.695312 119.113281 C 211.890625 118.996094 212.070312 118.875 212.257812 118.753906 C 212.445312 118.632812 212.640625 118.519531 212.816406 118.394531 L 213.074219 118.21875 C 213.457031 117.945312 213.820312 117.664062 214.164062 117.378906 L 214.308594 117.25 C 214.605469 117 214.882812 116.742188 215.144531 116.488281 L 215.25 116.382812 L 215.359375 116.277344 C 215.40625 116.230469 215.453125 116.179688 215.5 116.132812 C 215.734375 115.890625 215.957031 115.648438 216.164062 115.410156 L 216.265625 115.289062 C 216.480469 115.03125 216.679688 114.777344 216.867188 114.527344 L 216.945312 114.421875 L 217.019531 114.316406 C 217.152344 114.132812 217.277344 113.949219 217.394531 113.765625 C 217.453125 113.675781 217.511719 113.585938 217.566406 113.496094 L 217.621094 113.402344 C 217.667969 113.324219 217.703125 113.25 217.746094 113.171875 C 217.832031 113.015625 217.921875 112.859375 217.996094 112.710938 L 218.09375 112.515625 C 218.207031 112.277344 218.308594 112.042969 218.386719 111.828125 L 218.394531 111.804688 L 218.40625 111.765625 C 218.476562 111.570312 218.527344 111.386719 218.566406 111.214844 L 218.597656 111.074219 L 218.652344 110.59375 L 218.652344 110.574219 L 218.617188 110.378906 L 218.59375 110.242188 L 218.585938 110.21875 L 218.566406 110.175781 L 218.40625 110 L 218.390625 109.988281 C 218.324219 109.804688 218.234375 109.648438 218.125 109.523438 C 216.636719 107.792969 211.59375 110.792969 209.476562 112.171875 C 209.394531 112.222656 209.324219 112.273438 209.253906 112.320312 C 209.113281 112.414062 208.988281 112.496094 208.886719 112.566406 C 208.996094 112.488281 209.132812 112.390625 209.289062 112.28125 L 209.453125 112.160156 C 209.5625 112.078125 209.679688 111.996094 209.804688 111.902344 L 210.078125 111.699219 C 210.199219 111.609375 210.320312 111.515625 210.453125 111.417969 L 210.761719 111.175781 C 210.902344 111.070312 211.046875 110.957031 211.195312 110.84375 C 211.261719 110.789062 211.335938 110.730469 211.410156 110.671875 C 211.453125 110.636719 211.496094 110.605469 211.539062 110.570312 C 211.6875 110.449219 211.84375 110.324219 211.996094 110.199219 C 212.121094 110.097656 212.242188 109.996094 212.371094 109.890625 C 212.535156 109.753906 212.707031 109.609375 212.875 109.464844 C 212.996094 109.359375 213.117188 109.257812 213.242188 109.152344 C 213.4375 108.984375 213.632812 108.804688 213.828125 108.628906 L 214.132812 108.355469 C 214.28125 108.222656 214.429688 108.078125 214.578125 107.9375 C 214.726562 107.796875 214.875 107.664062 215.019531 107.519531 L 215.191406 107.347656 C 215.425781 107.117188 215.660156 106.882812 215.886719 106.644531 C 215.890625 106.644531 215.890625 106.640625 215.890625 106.640625 C 215.898438 106.632812 215.90625 106.625 215.914062 106.617188 C 216.007812 106.515625 216.101562 106.414062 216.195312 106.3125 C 216.375 106.121094 216.550781 105.925781 216.722656 105.730469 C 216.835938 105.605469 216.9375 105.476562 217.046875 105.351562 C 217.203125 105.167969 217.355469 104.984375 217.5 104.796875 C 217.605469 104.664062 217.707031 104.53125 217.804688 104.398438 C 217.945312 104.210938 218.078125 104.027344 218.203125 103.84375 C 218.296875 103.710938 218.386719 103.574219 218.472656 103.4375 C 218.59375 103.253906 218.703125 103.066406 218.808594 102.878906 L 219.03125 102.480469 C 219.132812 102.289062 219.21875 102.097656 219.300781 101.910156 L 219.464844 101.53125 C 219.492188 101.460938 219.515625 101.386719 219.539062 101.316406 C 219.558594 101.25 219.582031 101.183594 219.601562 101.121094 C 219.621094 101.050781 219.640625 100.980469 219.660156 100.914062 L 219.726562 100.683594 L 219.75 100.601562 C 219.820312 100.292969 219.863281 99.988281 219.871094 99.691406 C 219.871094 99.632812 219.867188 99.578125 219.867188 99.519531 Z M 219.867188 99.519531 " fill-opacity="1" fill-rule="nonzero"/></g><path fill="#ffffff" d="M 201.359375 78.113281 C 201.359375 78.113281 203.804688 82.535156 201.664062 84.191406 C 200.296875 85.460938 198.335938 85.292969 197.097656 85.007812 C 198.015625 80.421875 195.167969 72.101562 180.464844 78.605469 C 180.464844 78.605469 190.507812 75.726562 193.238281 79.625 C 197.703125 85.992188 190.929688 88.074219 190.929688 88.074219 C 190.929688 88.074219 194.035156 88.507812 195.851562 87.136719 C 202.328125 90.015625 206.113281 83.898438 204.285156 80.605469 C 204.285156 80.605469 206.585938 80.835938 207.203125 78.007812 C 203.746094 80.796875 201.359375 78.113281 201.359375 78.113281 Z M 201.359375 78.113281 " fill-opacity="1" fill-rule="nonzero"/><path fill="#ffffff" d="M 20.285156 91.449219 C 20.285156 91.449219 18.261719 96.074219 20.546875 97.527344 C 22.023438 98.664062 23.960938 98.316406 25.167969 97.921875 C 23.828125 93.4375 25.898438 84.890625 41.140625 90.011719 C 41.140625 90.011719 30.875 88.070312 28.511719 92.203125 C 24.65625 98.957031 31.59375 100.40625 31.59375 100.40625 C 31.59375 100.40625 28.539062 101.121094 26.605469 99.921875 C 20.421875 103.386719 16.085938 97.644531 17.601562 94.195312 C 17.601562 94.195312 15.332031 94.636719 14.460938 91.878906 C 18.160156 94.335938 20.285156 91.449219 20.285156 91.449219 Z M 20.285156 91.449219 " fill-opacity="1" fill-rule="nonzero"/><path fill="#d33a22" d="M 110.980469 149.957031 C 110.980469 149.957031 110.980469 149.960938 111.222656 150.367188 L 111.046875 150.320312 C 111.003906 150.085938 110.980469 149.957031 110.980469 149.957031 Z M 110.980469 149.957031 " fill-opacity="1" fill-rule="nonzero"/><path fill="#ffffff" d="M 157.867188 112.898438 C 158.882812 112.898438 159.707031 112.667969 160.078125 112.039062 C 162.140625 108.515625 145.984375 98.347656 145.984375 98.347656 L 138.128906 44.03125 C 126.175781 34.664062 113.53125 31.464844 101.9375 31.464844 C 97.304688 31.464844 92.84375 31.972656 88.65625 32.804688 C 71.804688 36.152344 57.648438 51.578125 58.960938 52.109375 C 59.308594 52.253906 59.722656 52.3125 60.171875 52.3125 C 63.148438 52.3125 67.859375 49.628906 67.859375 49.628906 C 67.859375 49.628906 56.246094 62.539062 55.855469 67.496094 C 55.738281 68.957031 56.464844 69.472656 57.539062 69.472656 C 60.101562 69.472656 64.671875 66.542969 64.671875 66.542969 L 64.890625 89.566406 C 64.890625 89.566406 56.246094 113.265625 56.246094 116.003906 C 56.246094 116.722656 56.558594 117.015625 57.066406 117.015625 C 59.417969 117.015625 66.03125 110.722656 66.03125 110.722656 C 66.03125 110.722656 58.464844 122.917969 60.554688 127.351562 C 60.863281 128.011719 61.554688 128.292969 62.5 128.292969 C 67.898438 128.292969 81.691406 119.132812 81.691406 119.132812 C 81.691406 119.132812 72.359375 140.796875 80.125 141.824219 C 80.464844 141.871094 80.8125 141.890625 81.171875 141.890625 C 90.144531 141.890625 104.261719 128.261719 104.261719 128.261719 C 104.261719 128.261719 115.609375 150.039062 127.746094 150.300781 C 127.808594 150.304688 127.871094 150.304688 127.933594 150.304688 C 139.878906 150.304688 139.488281 125.394531 139.488281 125.394531 C 139.488281 125.394531 150.347656 133.859375 157.304688 133.859375 C 157.976562 133.859375 158.605469 133.78125 159.191406 133.609375 C 165.84375 131.652344 150.578125 111.050781 150.578125 111.050781 C 150.578125 111.050781 154.992188 112.898438 157.867188 112.898438 Z M 157.867188 112.898438 " fill-opacity="1" fill-rule="nonzero"/><path fill="#9d9d9c" d="M 159.121094 118.011719 C 158.753906 117.390625 158.382812 116.78125 158.019531 116.191406 C 160.886719 116.144531 162.265625 114.820312 162.921875 113.703125 C 165.335938 109.582031 160.699219 105.113281 155.847656 101.285156 C 153.25 99.238281 150.570312 97.410156 149.03125 96.398438 L 141.390625 43.5625 C 141.269531 42.722656 140.832031 41.964844 140.164062 41.441406 C 128.925781 32.636719 116.066406 28.171875 101.9375 28.171875 C 97.390625 28.171875 92.707031 28.644531 88.015625 29.578125 C 78.804688 31.40625 70.863281 36.394531 65.824219 40.253906 C 63.273438 42.207031 60.835938 44.371094 58.964844 46.339844 C 56.027344 49.433594 55.6875 50.683594 55.597656 51.613281 C 55.453125 53.160156 56.304688 54.585938 57.722656 55.160156 C 58.0625 55.296875 58.421875 55.40625 58.796875 55.480469 C 53.507812 62.511719 52.703125 65.550781 52.570312 67.234375 C 52.410156 69.269531 53.160156 70.542969 53.816406 71.25 C 54.453125 71.941406 55.621094 72.765625 57.539062 72.765625 C 58.757812 72.765625 60.125 72.402344 61.429688 71.902344 L 61.589844 89 C 61 90.632812 59.21875 95.574219 57.453125 100.6875 C 52.953125 113.742188 52.953125 115.160156 52.953125 116.003906 C 52.953125 118.5 54.683594 120.308594 57.066406 120.308594 C 57.308594 120.308594 57.5625 120.292969 57.84375 120.25 C 56.667969 123.910156 56.589844 126.664062 57.574219 128.753906 C 57.972656 129.605469 59.257812 131.585938 62.5 131.585938 C 65.816406 131.585938 71.035156 129.183594 75.492188 126.734375 L 75.464844 126.832031 C 73.359375 134.0625 73.183594 138.84375 74.90625 141.878906 C 75.925781 143.675781 77.625 144.816406 79.691406 145.089844 C 80.167969 145.152344 80.667969 145.183594 81.171875 145.183594 C 88.734375 145.183594 98.46875 137.734375 103.445312 133.445312 C 104.753906 135.574219 106.613281 138.390625 108.875 141.234375 C 115.292969 149.304688 121.617188 153.464844 127.675781 153.59375 C 127.761719 153.59375 127.847656 153.597656 127.933594 153.597656 C 130.957031 153.597656 133.714844 152.414062 135.917969 150.179688 C 140.417969 145.613281 141.980469 137.285156 142.515625 131.503906 C 146.644531 134.101562 152.515625 137.152344 157.308594 137.152344 C 158.308594 137.152344 159.253906 137.023438 160.121094 136.769531 C 161.921875 136.238281 163.234375 134.984375 163.824219 133.230469 C 164.546875 131.070312 164.667969 127.386719 159.121094 118.011719 Z M 159.191406 133.609375 C 158.605469 133.78125 157.976562 133.859375 157.304688 133.859375 C 150.347656 133.859375 139.488281 125.394531 139.488281 125.394531 C 139.488281 125.394531 139.878906 150.304688 127.933594 150.304688 C 127.871094 150.304688 127.808594 150.304688 127.746094 150.300781 C 115.609375 150.039062 104.261719 128.261719 104.261719 128.261719 C 104.261719 128.261719 90.144531 141.890625 81.171875 141.890625 C 80.8125 141.890625 80.464844 141.871094 80.125 141.824219 C 72.359375 140.796875 81.691406 119.132812 81.691406 119.132812 C 81.691406 119.132812 67.898438 128.292969 62.5 128.292969 C 61.554688 128.292969 60.863281 128.011719 60.554688 127.351562 C 58.464844 122.917969 66.03125 110.722656 66.03125 110.722656 C 66.03125 110.722656 59.417969 117.015625 57.066406 117.015625 C 56.558594 117.015625 56.246094 116.722656 56.246094 116.003906 C 56.246094 113.265625 64.890625 89.566406 64.890625 89.566406 L 64.671875 66.542969 C 64.671875 66.542969 60.101562 69.472656 57.539062 69.472656 C 56.464844 69.472656 55.742188 68.957031 55.855469 67.496094 C 56.246094 62.539062 67.859375 49.628906 67.859375 49.628906 C 67.859375 49.628906 63.148438 52.3125 60.171875 52.3125 C 59.722656 52.3125 59.308594 52.253906 58.960938 52.109375 C 57.648438 51.578125 71.804688 36.152344 88.65625 32.804688 C 92.84375 31.972656 97.304688 31.464844 101.9375 31.464844 C 113.53125 31.464844 126.175781 34.664062 138.128906 44.03125 L 145.984375 98.347656 C 145.984375 98.347656 162.140625 108.515625 160.078125 112.039062 C 159.707031 112.667969 158.882812 112.898438 157.867188 112.898438 C 154.992188 112.898438 150.578125 111.050781 150.578125 111.050781 C 150.578125 111.050781 165.84375 131.652344 159.191406 133.609375 Z M 159.191406 133.609375 " fill-opacity="1" fill-rule="nonzero"/><path fill="#d6d6d6" d="M 134.878906 81.03125 C 138.050781 78.589844 140.664062 71.667969 138.574219 61.367188 C 136.488281 51.0625 129.03125 42.933594 120.730469 42.183594 C 111.914062 41.390625 113.625 61.472656 108.652344 61.472656 C 104.742188 61.472656 101.566406 53.476562 95.867188 49.214844 C 91.402344 45.875 86.359375 46.089844 80.03125 52.328125 C 70.46875 61.757812 69.292969 69.582031 71.382812 75.839844 C 73.46875 82.101562 83.144531 92.246094 97.429688 88.921875 C 111.71875 85.597656 109.355469 78.566406 116.089844 76.859375 C 122.824219 75.152344 128.613281 85.859375 134.878906 81.03125 Z M 134.878906 81.03125 " fill-opacity="1" fill-rule="nonzero"/><path fill="#ffffff" d="M 101.652344 66.105469 C 101.917969 67.019531 102.113281 67.941406 102.238281 68.878906 C 102.363281 69.8125 102.414062 70.742188 102.394531 71.664062 C 102.375 72.585938 102.28125 73.484375 102.117188 74.355469 C 101.953125 75.226562 101.71875 76.058594 101.414062 76.847656 C 101.113281 77.636719 100.746094 78.367188 100.316406 79.042969 C 99.886719 79.71875 99.398438 80.324219 98.859375 80.863281 C 98.320312 81.398438 97.734375 81.855469 97.105469 82.230469 C 96.476562 82.605469 95.8125 82.894531 95.117188 83.097656 C 94.425781 83.300781 93.710938 83.410156 92.976562 83.429688 C 92.242188 83.449219 91.503906 83.378906 90.761719 83.214844 C 90.019531 83.050781 89.285156 82.800781 88.558594 82.460938 C 87.832031 82.121094 87.132812 81.699219 86.453125 81.195312 C 85.773438 80.691406 85.128906 80.113281 84.523438 79.464844 C 83.914062 78.820312 83.355469 78.109375 82.84375 77.34375 C 82.332031 76.578125 81.878906 75.765625 81.484375 74.90625 C 81.085938 74.050781 80.757812 73.164062 80.492188 72.25 C 80.226562 71.335938 80.027344 70.410156 79.902344 69.476562 C 79.777344 68.539062 79.726562 67.609375 79.746094 66.6875 C 79.765625 65.769531 79.859375 64.871094 80.023438 64 C 80.191406 63.125 80.421875 62.296875 80.726562 61.507812 C 81.03125 60.71875 81.398438 59.984375 81.828125 59.308594 C 82.257812 58.632812 82.742188 58.027344 83.28125 57.492188 C 83.820312 56.957031 84.40625 56.5 85.035156 56.125 C 85.667969 55.746094 86.328125 55.457031 87.023438 55.257812 C 87.71875 55.054688 88.429688 54.945312 89.164062 54.925781 C 89.898438 54.90625 90.636719 54.976562 91.378906 55.140625 C 92.125 55.304688 92.859375 55.554688 93.582031 55.894531 C 94.308594 56.234375 95.011719 56.65625 95.691406 57.160156 C 96.371094 57.664062 97.011719 58.238281 97.621094 58.886719 C 98.226562 59.535156 98.785156 60.242188 99.296875 61.011719 C 99.808594 61.777344 100.261719 62.589844 100.660156 63.445312 C 101.054688 64.304688 101.386719 65.191406 101.652344 66.105469 Z M 101.652344 66.105469 " fill-opacity="1" fill-rule="nonzero"/><path fill="#ffffff" d="M 136.003906 61.273438 C 136.269531 62.1875 136.464844 63.113281 136.589844 64.046875 C 136.714844 64.984375 136.769531 65.914062 136.75 66.835938 C 136.726562 67.757812 136.636719 68.652344 136.46875 69.527344 C 136.304688 70.398438 136.070312 71.226562 135.769531 72.015625 C 135.464844 72.804688 135.097656 73.539062 134.667969 74.214844 C 134.238281 74.890625 133.753906 75.496094 133.214844 76.03125 C 132.671875 76.566406 132.089844 77.023438 131.457031 77.402344 C 130.828125 77.777344 130.167969 78.066406 129.472656 78.269531 C 128.777344 78.46875 128.0625 78.582031 127.332031 78.601562 C 126.597656 78.621094 125.859375 78.546875 125.113281 78.382812 C 124.371094 78.222656 123.636719 77.96875 122.910156 77.628906 C 122.1875 77.289062 121.484375 76.867188 120.804688 76.363281 C 120.125 75.859375 119.484375 75.285156 118.875 74.636719 C 118.269531 73.988281 117.710938 73.28125 117.199219 72.515625 C 116.6875 71.746094 116.234375 70.933594 115.835938 70.078125 C 115.441406 69.21875 115.109375 68.335938 114.84375 67.421875 C 114.578125 66.507812 114.382812 65.582031 114.257812 64.644531 C 114.132812 63.710938 114.078125 62.78125 114.101562 61.859375 C 114.121094 60.9375 114.214844 60.039062 114.378906 59.167969 C 114.542969 58.296875 114.777344 57.464844 115.082031 56.675781 C 115.382812 55.886719 115.75 55.15625 116.179688 54.480469 C 116.609375 53.804688 117.09375 53.199219 117.636719 52.664062 C 118.175781 52.125 118.761719 51.667969 119.390625 51.292969 C 120.019531 50.917969 120.679688 50.628906 121.375 50.425781 C 122.070312 50.226562 122.785156 50.113281 123.519531 50.09375 C 124.25 50.074219 124.988281 50.148438 125.734375 50.308594 C 126.476562 50.472656 127.210938 50.726562 127.9375 51.066406 C 128.660156 51.40625 129.363281 51.828125 130.042969 52.332031 C 130.722656 52.835938 131.367188 53.410156 131.972656 54.058594 C 132.578125 54.707031 133.140625 55.414062 133.648438 56.179688 C 134.160156 56.949219 134.617188 57.761719 135.011719 58.617188 C 135.40625 59.472656 135.738281 60.359375 136.003906 61.273438 Z M 136.003906 61.273438 " fill-opacity="1" fill-rule="nonzero"/><path fill="#e30613" d="M 139.269531 73.484375 C 139.296875 73.695312 139.210938 73.914062 139 74.140625 C 138.792969 74.367188 138.480469 74.585938 138.070312 74.796875 C 137.65625 75.003906 137.171875 75.1875 136.613281 75.347656 C 136.058594 75.507812 135.472656 75.628906 134.859375 75.714844 C 134.246094 75.800781 133.648438 75.839844 133.070312 75.839844 C 132.492188 75.835938 131.976562 75.792969 131.519531 75.703125 C 131.066406 75.613281 130.707031 75.488281 130.445312 75.328125 C 130.183594 75.164062 130.039062 74.980469 130.007812 74.769531 C 129.980469 74.558594 130.070312 74.339844 130.277344 74.113281 C 130.484375 73.886719 130.796875 73.667969 131.210938 73.460938 C 131.621094 73.25 132.105469 73.066406 132.664062 72.90625 C 133.21875 72.746094 133.804688 72.625 134.417969 72.539062 C 135.03125 72.457031 135.628906 72.414062 136.207031 72.417969 C 136.785156 72.417969 137.300781 72.464844 137.757812 72.550781 C 138.210938 72.640625 138.570312 72.765625 138.832031 72.925781 C 139.09375 73.089844 139.242188 73.277344 139.269531 73.484375 Z M 139.269531 73.484375 " fill-opacity="1" fill-rule="nonzero"/><path fill="#e30613" d="M 89.691406 80.007812 C 89.71875 80.21875 89.632812 80.4375 89.421875 80.664062 C 89.214844 80.890625 88.902344 81.109375 88.492188 81.316406 C 88.078125 81.527344 87.59375 81.710938 87.035156 81.871094 C 86.480469 82.027344 85.894531 82.152344 85.28125 82.238281 C 84.667969 82.320312 84.070312 82.363281 83.492188 82.359375 C 82.914062 82.359375 82.398438 82.3125 81.941406 82.226562 C 81.488281 82.136719 81.128906 82.011719 80.867188 81.847656 C 80.605469 81.6875 80.460938 81.5 80.429688 81.292969 C 80.402344 81.082031 80.492188 80.863281 80.699219 80.636719 C 80.90625 80.40625 81.21875 80.191406 81.628906 79.980469 C 82.042969 79.773438 82.527344 79.589844 83.085938 79.429688 C 83.640625 79.269531 84.226562 79.148438 84.839844 79.0625 C 85.453125 78.976562 86.050781 78.9375 86.628906 78.9375 C 87.207031 78.941406 87.722656 78.984375 88.179688 79.074219 C 88.632812 79.164062 88.992188 79.289062 89.253906 79.449219 C 89.515625 79.613281 89.660156 79.796875 89.691406 80.007812 Z M 89.691406 80.007812 " fill-opacity="1" fill-rule="nonzero"/><path fill="#f29222" d="M 129.003906 96.070312 C 129.003906 96.070312 124.566406 86.25 137.078125 84.953125 C 138.179688 80.367188 133.5625 74.242188 127.675781 71.707031 C 113.46875 65.585938 108.429688 80.445312 100.453125 83.835938 C 97.617188 85.042969 94.746094 84.621094 94.746094 84.621094 C 94.746094 84.621094 89.207031 82.320312 88.480469 85.089844 C 87.46875 88.925781 93.757812 90.355469 93.757812 90.355469 C 98.617188 109.226562 106.6875 112.863281 112.527344 114.699219 C 122.335938 117.78125 138.816406 108.285156 129.003906 96.070312 Z M 129.003906 96.070312 " fill-opacity="1" fill-rule="nonzero"/><path fill="#002d4b" d="M 130.953125 81.390625 C 125.261719 78.191406 120.097656 93.320312 98.238281 91.449219 C 101.363281 98.042969 106.472656 102.109375 111.65625 103.546875 C 124.347656 107.074219 128.578125 100.863281 129.046875 96.410156 C 129.046875 96.410156 125.035156 94.621094 126.113281 87.449219 C 126.578125 84.367188 130.953125 81.390625 130.953125 81.390625 Z M 130.953125 81.390625 " fill-opacity="1" fill-rule="nonzero"/><path fill="#e20613" d="M 106.175781 99.582031 C 107.296875 100.75 109.867188 103.25 117.382812 103.820312 C 117.382812 103.820312 115.277344 95.632812 106.175781 99.582031 Z M 106.175781 99.582031 " fill-opacity="1" fill-rule="nonzero"/><path fill="#ffffff" d="M 124.589844 72.722656 C 124.996094 72.859375 125.394531 73.007812 125.785156 73.164062 C 126.175781 73.324219 126.550781 73.492188 126.910156 73.667969 C 127.269531 73.84375 127.605469 74.027344 127.917969 74.210938 C 128.230469 74.398438 128.515625 74.585938 128.773438 74.777344 C 129.03125 74.964844 129.253906 75.152344 129.441406 75.339844 C 129.628906 75.523438 129.78125 75.703125 129.898438 75.878906 C 130.011719 76.054688 130.085938 76.21875 130.125 76.375 C 130.160156 76.53125 130.15625 76.675781 130.109375 76.808594 C 130.066406 76.941406 129.984375 77.058594 129.859375 77.160156 C 129.738281 77.265625 129.578125 77.351562 129.382812 77.421875 C 129.183594 77.492188 128.957031 77.542969 128.691406 77.578125 C 128.429688 77.613281 128.140625 77.628906 127.820312 77.628906 C 127.5 77.625 127.160156 77.605469 126.796875 77.566406 C 126.433594 77.523438 126.058594 77.46875 125.664062 77.394531 C 125.273438 77.320312 124.871094 77.226562 124.464844 77.121094 C 124.058594 77.011719 123.648438 76.890625 123.242188 76.753906 C 122.835938 76.621094 122.4375 76.472656 122.046875 76.3125 C 121.65625 76.152344 121.28125 75.984375 120.921875 75.808594 C 120.566406 75.632812 120.230469 75.453125 119.914062 75.265625 C 119.601562 75.078125 119.316406 74.890625 119.058594 74.703125 C 118.804688 74.511719 118.582031 74.324219 118.390625 74.140625 C 118.203125 73.953125 118.050781 73.773438 117.9375 73.601562 C 117.820312 73.425781 117.746094 73.261719 117.710938 73.105469 C 117.675781 72.949219 117.679688 72.804688 117.722656 72.671875 C 117.765625 72.539062 117.851562 72.421875 117.972656 72.316406 C 118.097656 72.214844 118.253906 72.128906 118.453125 72.058594 C 118.648438 71.988281 118.878906 71.933594 119.140625 71.898438 C 119.402344 71.863281 119.695312 71.847656 120.011719 71.851562 C 120.332031 71.855469 120.671875 71.875 121.035156 71.914062 C 121.398438 71.953125 121.777344 72.011719 122.167969 72.085938 C 122.5625 72.160156 122.960938 72.25 123.371094 72.359375 C 123.777344 72.464844 124.183594 72.585938 124.589844 72.722656 Z M 124.589844 72.722656 " fill-opacity="1" fill-rule="nonzero"/><path fill="#ffffff" d="M 132.09375 77.230469 C 132.25 77.296875 132.386719 77.378906 132.511719 77.476562 C 132.636719 77.578125 132.738281 77.6875 132.816406 77.8125 C 132.894531 77.933594 132.941406 78.054688 132.957031 78.179688 C 132.976562 78.304688 132.960938 78.421875 132.917969 78.527344 C 132.871094 78.636719 132.800781 78.730469 132.699219 78.804688 C 132.597656 78.878906 132.476562 78.933594 132.335938 78.964844 C 132.195312 78.996094 132.046875 79.003906 131.886719 78.984375 C 131.726562 78.96875 131.570312 78.929688 131.417969 78.863281 C 131.261719 78.800781 131.125 78.71875 131 78.617188 C 130.875 78.519531 130.773438 78.40625 130.695312 78.285156 C 130.617188 78.164062 130.570312 78.039062 130.554688 77.917969 C 130.535156 77.792969 130.550781 77.675781 130.59375 77.566406 C 130.640625 77.460938 130.714844 77.367188 130.8125 77.292969 C 130.914062 77.214844 131.035156 77.164062 131.175781 77.132812 C 131.316406 77.097656 131.464844 77.09375 131.625 77.109375 C 131.785156 77.128906 131.941406 77.167969 132.09375 77.230469 Z M 132.09375 77.230469 " fill-opacity="1" fill-rule="nonzero"/><path fill="#002d4b" d="M 115.351562 52.496094 C 114.183594 53.851562 112.25 52.113281 112.582031 50.65625 C 112.914062 49.195312 114.648438 42.832031 119.800781 41.847656 C 127.878906 40.304688 134.101562 48.183594 134.101562 48.183594 C 136.59375 50.597656 135.785156 52.421875 134.816406 51.777344 C 119.957031 41.933594 117.578125 49.917969 115.351562 52.496094 Z M 115.351562 52.496094 " fill-opacity="1" fill-rule="nonzero"/><path fill="#002d4b" d="M 99.15625 53.71875 C 100.15625 53.425781 99.226562 51.40625 99.226562 51.40625 C 98.179688 50.140625 92.804688 43.449219 86.648438 44.414062 C 80.492188 45.378906 74.496094 53.214844 72.667969 56.667969 C 71.015625 59.792969 74.15625 60.726562 74.941406 59.789062 C 80.128906 53.570312 83.902344 51.386719 86.792969 50.898438 C 91.996094 50.019531 96.171875 54.585938 99.15625 53.71875 Z M 99.15625 53.71875 " fill-opacity="1" fill-rule="nonzero"/><path fill="#9d9d9c" d="M 123.539062 118.058594 C 123.539062 118.058594 120.210938 122.949219 111.40625 118.058594 C 118.449219 124.121094 123.734375 122.949219 123.539062 118.058594 Z M 123.539062 118.058594 " fill-opacity="1" fill-rule="nonzero"/><path fill="#002d4b" d="M 100.953125 71.210938 C 100.945312 70.28125 99.984375 65.511719 95.804688 64.246094 C 91.710938 62.976562 89.011719 64.855469 87.769531 66.765625 C 87.285156 67.535156 88.0625 68.421875 88.910156 68.09375 C 90.6875 67.402344 92.304688 67.402344 93.730469 67.792969 C 93.367188 67.820312 92.996094 67.867188 92.617188 67.964844 C 88.457031 69.007812 87.125 72.015625 87.058594 74.292969 C 87.046875 75.199219 88.167969 75.554688 88.722656 74.832031 C 91.914062 70.679688 96.757812 71.59375 99.519531 72.597656 C 100.164062 72.820312 100.765625 72.34375 100.789062 71.777344 C 100.898438 71.625 100.964844 71.433594 100.953125 71.210938 Z M 100.953125 71.210938 " fill-opacity="1" fill-rule="nonzero"/><path fill="#002d4b" d="M 131.269531 68.9375 C 130.992188 68.050781 128.675781 63.773438 124.308594 63.785156 C 123.15625 63.78125 122.167969 63.96875 121.324219 64.285156 C 123.253906 62.574219 125.851562 61.996094 127.710938 61.820312 C 128.59375 61.714844 128.902344 60.566406 128.132812 60.117188 C 127.351562 59.613281 122.832031 57.808594 119.484375 60.609375 C 116.179688 63.339844 116.273438 66.628906 117.195312 68.710938 C 117.234375 68.800781 117.289062 68.875 117.347656 68.941406 C 117.449219 69.589844 118.242188 69.953125 118.84375 69.480469 C 122.960938 66.242188 127.429688 68.316406 129.855469 69.972656 C 130.601562 70.460938 131.574219 69.773438 131.269531 68.9375 Z M 131.269531 68.9375 " fill-opacity="1" fill-rule="nonzero"/><path fill="#005995" d="M 147.339844 44.273438 C 147.925781 43.460938 174.917969 21.46875 174.917969 21.46875 C 174.917969 21.46875 181.421875 22.746094 178.738281 29.472656 L 149.375 45.742188 Z M 147.339844 44.273438 " fill-opacity="1" fill-rule="nonzero"/><path fill="#005995" d="M 143.4375 35.960938 C 143.542969 35.480469 151.328125 20.261719 151.328125 20.261719 C 151.328125 20.261719 154.503906 19.554688 154.628906 23.105469 L 144.644531 36.21875 Z M 143.4375 35.960938 " fill-opacity="1" fill-rule="nonzero"/><path fill="#005995" d="M 154.46875 53.039062 C 154.863281 52.742188 170.707031 46.3125 170.707031 46.3125 C 170.707031 46.3125 173.574219 47.851562 171.34375 50.621094 L 155.214844 54.023438 Z M 154.46875 53.039062 " fill-opacity="1" fill-rule="nonzero"/><path fill="#005995" d="M 48.078125 49.554688 C 47.492188 48.742188 20.5 26.746094 20.5 26.746094 C 20.5 26.746094 13.996094 28.027344 16.679688 34.753906 L 46.039062 51.023438 Z M 48.078125 49.554688 " fill-opacity="1" fill-rule="nonzero"/><path fill="#005995" d="M 51.980469 41.242188 C 51.875 40.761719 44.089844 25.542969 44.089844 25.542969 C 44.089844 25.542969 40.914062 24.835938 40.789062 28.386719 L 50.773438 41.5 Z M 51.980469 41.242188 " fill-opacity="1" fill-rule="nonzero"/><path fill="#005995" d="M 40.949219 58.324219 C 40.554688 58.023438 24.710938 51.59375 24.710938 51.59375 C 24.710938 51.59375 21.84375 53.132812 24.074219 55.902344 L 40.203125 59.304688 Z M 40.949219 58.324219 " fill-opacity="1" fill-rule="nonzero"/></svg>