<svg width="15" height="4" viewBox="0 0 15 4" fill="none" xmlns="http://www.w3.org/2000/svg">
<path d="M0.976562 2.28125V1.96094C0.976562 1.51302 1.11719 1.14323 1.39844 0.851562C1.6849 0.559896 2.07292 0.414062 2.5625 0.414062C3.05729 0.414062 3.44792 0.559896 3.73438 0.851562C4.02083 1.14323 4.16406 1.51302 4.16406 1.96094V2.28125C4.16406 2.72396 4.02083 3.09115 3.73438 3.38281C3.45312 3.66927 3.0651 3.8125 2.57031 3.8125C2.08073 3.8125 1.69271 3.66927 1.40625 3.38281C1.11979 3.09115 0.976562 2.72396 0.976562 2.28125ZM6.38281 2.28125V1.96094C6.38281 1.51302 6.52344 1.14323 6.80469 0.851562C7.09115 0.559896 7.47917 0.414062 7.96875 0.414062C8.46354 0.414062 8.85417 0.559896 9.14062 0.851562C9.42708 1.14323 9.57031 1.51302 9.57031 1.96094V2.28125C9.57031 2.72396 9.42708 3.09115 9.14062 3.38281C8.85938 3.66927 8.47135 3.8125 7.97656 3.8125C7.48698 3.8125 7.09896 3.66927 6.8125 3.38281C6.52604 3.09115 6.38281 2.72396 6.38281 2.28125ZM11.7891 2.28125V1.96094C11.7891 1.51302 11.9297 1.14323 12.2109 0.851562C12.4974 0.559896 12.8854 0.414062 13.375 0.414062C13.8698 0.414062 14.2604 0.559896 14.5469 0.851562C14.8333 1.14323 14.9766 1.51302 14.9766 1.96094V2.28125C14.9766 2.72396 14.8333 3.09115 14.5469 3.38281C14.2656 3.66927 13.8776 3.8125 13.3828 3.8125C12.8932 3.8125 12.5052 3.66927 12.2188 3.38281C11.9323 3.09115 11.7891 2.72396 11.7891 2.28125Z" fill="black"/>
</svg>
